<svg aria-hidden="true" width="30" height="30" viewBox="0 0 1024 1024" xmlns="http://www.w3.org/2000/svg" xmlns:xlink="http://www.w3.org/1999/xlink">
  <path d="M486.73579 0.6396C218.27254 0.6396 0.6396 223.99952 0.6396 499.527795c0 275.528275 217.632939 498.888195 486.09619 498.888195 268.46325 0 486.09619-223.35992 486.09619-498.888195C972.83198 223.99952 755.199041 0.6396 486.73579 0.6396zM628.55947 933.589946c-22.731393 4.552675-30.778843-9.750066-30.778843-22.044462 0-15.061307 0.538543-64.556132 0.538543-125.88868 0-42.835308-14.324487-70.9112-30.375895-85.094976 99.739263-11.320924 204.402169-50.163848 204.402169-226.476052 0-50.133147-17.315258-91.118731-46.009004-123.21643 4.585934-11.557577 19.974716-58.231765-4.455455-121.463925 0 0-37.531743-12.331493-123.018154 47.096325-35.740862-10.227208-74.059313-15.323543-112.083548-15.491118-38.076682 0.157342-76.384899 5.26391-112.075873 15.491118-85.549092-59.427818-123.134561-47.096325-123.134561-47.096325-24.370049 63.23216-8.97615 109.906349-4.395333 121.463925-28.636182 32.097699-46.070406 73.083283-46.070406 123.21643 0 175.901582 104.51196 215.284327 203.914793 226.86365-12.775375 11.500012-24.370049 31.689634-28.419998 61.409299-25.499583 11.681659-90.371678 31.980012-130.300642-38.172622 0 0-23.64858-44.030081-68.577939-47.290763 0 0-43.738423-0.557731-3.08799 27.90448 0 0 29.352535 14.104465 49.714848 67.129884 0 0 26.281174 89.313779 150.827973 61.547453 0.19188 38.352989 0.585874 67.20024 0.585874 78.077282 0 12.201014-8.152345 26.343855-30.562658 22.093072C167.269537 872.978868 39.015615 700.914888 39.015615 498.093811 39.015615 244.552435 239.466334 39.015615 486.712765 39.015615 734.001409 39.015615 934.455965 244.552435 934.455965 498.093811 934.455965 700.857324 806.291588 872.795943 628.55947 933.589946z"></path>
</svg>