<svg aria-hidden="true" width="30" height="30" viewBox="0 0 1024 1024" xmlns="http://www.w3.org/2000/svg" xmlns:xlink="http://www.w3.org/1999/xlink">
  <path d="M48.6 617V259.1h134.3c27.3 0 49.3 3.6 65.8 10.9 16.5 7.2 29.5 18.4 38.8 33.4 9.4 15.1 14 30.8 14 47.2 0 15.3-4.2 29.7-12.5 43.2-8.3 13.5-20.8 24.4-37.6 32.7 21.6 6.3 38.3 17.2 49.9 32.5 11.6 15.3 17.5 33.4 17.5 54.2 0 16.8-3.5 32.3-10.6 46.8s-15.8 25.5-26.2 33.3c-10.4 7.8-23.5 13.7-39.2 17.7-15.7 4-35 6-57.7 6H48.6zM96 409.5h77.4c21 0 36-1.4 45.2-4.2 12-3.6 21.1-9.5 27.2-17.8s9.2-18.7 9.2-31.3c0-11.9-2.8-22.3-8.5-31.4-5.7-9-13.8-15.2-24.4-18.6-10.6-3.3-28.7-5-54.4-5H96v108.3z m0 165.3h89.1c15.3 0 26-0.6 32.2-1.7 10.9-2 20-5.2 27.3-9.8 7.3-4.6 13.3-11.2 18.1-19.9 4.7-8.7 7.1-18.8 7.1-30.2 0-13.3-3.4-24.9-10.3-34.8-6.8-9.8-16.3-16.8-28.4-20.8-12.1-4-29.6-6-52.4-6H96v123.2zM377.5 617V259.1h43.9V617h-43.9zM473.2 487.4c0-48 13.3-83.6 40-106.7 22.3-19.2 49.5-28.8 81.5-28.8 35.6 0 64.8 11.7 87.4 35 22.6 23.4 33.9 55.6 33.9 96.8 0 33.4-5 59.6-15 78.7s-24.6 34-43.7 44.6c-19.1 10.6-40 15.9-62.6 15.9-36.3 0-65.6-11.6-88-34.9-22.3-23.3-33.5-56.9-33.5-100.6z m45.1 0c0 33.2 7.2 58.1 21.7 74.6 14.5 16.5 32.7 24.8 54.7 24.8 21.8 0 40-8.3 54.4-24.9 14.5-16.6 21.7-41.9 21.7-75.9 0-32.1-7.3-56.4-21.9-72.9-14.6-16.5-32.7-24.8-54.3-24.8-22 0-40.2 8.2-54.7 24.7-14.3 16.3-21.6 41.2-21.6 74.4zM759.6 638.5l42.7 6.3c1.8 13.2 6.8 22.8 14.9 28.8 10.9 8.1 25.8 12.2 44.7 12.2 20.3 0 36-4.1 47.1-12.2 11.1-8.1 18.6-19.5 22.5-34.2 2.3-9 3.3-27.7 3.2-56.4-19.2 22.6-43.1 33.9-71.8 33.9-35.6 0-63.2-12.9-82.8-38.6-19.5-25.7-29.3-56.6-29.3-92.5 0-24.7 4.5-47.6 13.4-68.5s21.9-37.1 38.9-48.5c17-11.4 37-17.1 59.9-17.1 30.6 0 55.8 12.4 75.7 37.1v-31.3h40.5v224.1c0 40.4-4.1 69-12.3 85.8-8.2 16.8-21.2 30.2-39.1 39.9S888 721.9 862 721.9c-30.9 0-55.9-7-75-20.9s-28.1-34.5-27.4-62.5z m36.3-155.8c0 34 6.8 58.8 20.3 74.5 13.5 15.6 30.4 23.4 50.8 23.4 20.2 0 37.1-7.8 50.8-23.3 13.7-15.5 20.5-39.9 20.5-73.1 0-31.7-7-55.7-21.1-71.8-14.1-16.1-31-24.2-50.9-24.2-19.5 0-36.1 7.9-49.8 23.8s-20.6 39.5-20.6 70.7z" fill="#333333"></path>
</svg>