<svg aria-hidden="true" width="30" height="30" viewBox="0 0 1024 1024" xmlns="http://www.w3.org/2000/svg" xmlns:xlink="http://www.w3.org/1999/xlink">
  <path d="M498.752 571.104c-8.64-3.456-19.488 0.736-24.544 9.28-4.96 8.576-2.24 18.368 6.432 21.952 8.864 3.648 20.128-0.576 25.216-9.28 4.864-8.832 1.696-18.72-7.104-21.952m-55.616 23.136c-22.56-9.504-51.744 0.256-65.664 22.176-14.08 21.984-7.488 48.192 14.944 58.432 22.72 10.4 52.896 0.512 67.008-22.048 13.824-22.752 6.528-48.8-16.32-58.56m-39.52 131.392c-70.08-22.688-99.744-92.096-69.088-154.592 30.144-61.312 108.512-96 177.888-77.888 71.744 18.624 108.384 86.528 79.04 152.48-29.76 67.52-115.296 103.488-187.84 80m59.968-306.336c-145.696 14.464-256.224 103.968-246.72 199.904 9.44 96 135.232 162.08 280.96 147.648 145.76-14.464 256.224-103.968 246.784-200-9.44-95.936-135.264-162.016-281.024-147.552m115.2-82.688c89.632-37.632 167.84-39.84 196.416 1.12 15.232 21.824 13.76 52.448-0.256 87.904-6.528 16.352 1.984 18.88 14.4 22.624 50.464 15.68 106.688 53.664 106.688 120.64 0 110.752-159.264 250.304-398.688 250.304C314.688 819.2 128 730.4 128 584.384c0-76.352 48.224-164.64 131.264-247.968 110.88-111.2 240.16-161.824 288.8-113.024 21.44 21.504 23.552 58.752 9.76 103.2-7.2 22.4 20.928 9.984 20.928 10.016"></path>
</svg>