<svg version="1" xmlns="http://www.w3.org/2000/svg" width="74.667" height="38.667" viewBox="0 0 56 29">
  <path d="M26.3 1.6c-.8 2.1 1.3 4.2 2.8 2.7C30.4 3 29.6 0 28 0c-.6 0-1.3.7-1.7 1.6zM13 8.7c-2.4 3.5-2.5 3.5-3 1.2-.4-1.5-1.3-2.4-2.5-2.4-2.1 0-2.2.6-1.2 6.7.5 3.1.1 4.2-2.9 7.6C1.5 24 0 26.3 0 26.9c0 1.8 3.2 1.2 5.7-1.1 2.1-2 2.4-2 4.1-.5 3.1 2.8 6 1.8 9.5-3.3l1.7-2.4V22c.1 6.5 5.2 6.4 10-.2 2.8-3.8 3-3.9 3-1.6 0 1.4.9 3.6 1.9 4.9 1.6 2 2.3 2.2 4.7 1.4 1.6-.6 3.8-2.4 4.9-4 1.1-1.7 2.7-2.9 3.6-2.7.9.1 2.7-.6 4-1.7 2.3-1.9 2.3-2 .3-1.5-1.7.5-2.8-.4-5.3-4-3.7-5.3-7.2-6.7-10.1-4.1-1.1 1-2.2 2.7-2.6 3.9-.8 2.4-6.8 8.6-8.4 8.6-1.3 0-1.3-1.7.2-7.9 1.3-5.9.8-6.9-2.8-5.2-1.7.8-2.4 1.7-2 2.7 1.4 3.8-5.5 12.3-9 11-2.2-.8-1.7-2.7 2.2-8.4C19 8 19.5 5 16.8 5c-.7 0-2.4 1.7-3.8 3.7zm29.8 6.2c.4 3.6-2.3 8.6-3.9 7.5-1-.6-.7-5 .7-9.7.9-2.8 2.9-1.4 3.2 2.2z"/>
  <style>
    path {
        fill: #333;
    }
    @media (prefers-color-scheme: dark) {
        path {
            fill: #FFF;
        }
    }
  </style>
</svg>
